<svg width="20" height="16" viewBox="0 0 20 16" fill="none" xmlns="http://www.w3.org/2000/svg">
<path d="M18.0792 0.69129C12.2711 3.12578 8.41158 10.0507 7.18228 13.3722C7.15826 13.437 6.914 13.4765 6.87021 13.422C5.36658 11.5531 3.62677 10.0764 1.97123 9.26391C1.50791 9.03656 0.948101 9.22785 0.720796 9.69102C0.493452 10.1543 0.684585 10.7141 1.14783 10.9415C2.56318 11.6362 4.0783 12.9331 5.41416 14.5935C5.81017 15.0859 6.38658 15.3591 7.00166 15.3591C7.11412 15.3591 8.27701 15.6646 8.93482 14.0209C10.1465 10.9934 13.5856 4.60117 18.8015 2.41484C19.2774 2.21531 19.5016 1.66781 19.302 1.19188C19.1026 0.715977 18.555 0.491993 18.0792 0.69129Z" fill="#4335DE"/>
</svg>
